# xmcd
#
# Track frame offsets: 
#        150
#        17935
#        35227
#        52097
#        68101
#        87381
#        103583
#        123673
#        139314
#        161019
#        176232
#
# Disc length: 2578 seconds
#
# Revision: 0
# Processed by: cddbd v1.5.2PL0 Copyright (c) Steve Scherf et al.
# Submitted via: ExactAudioCopy v0.95b4
#
DISCID=a80a100b
DTITLE=Katie Armiger - Katie Armiger
DYEAR=2007
DGENRE=Country
TTITLE0=Make Me Believe
TTITLE1=Let Him Go
TTITLE2=17 In Abilene
TTITLE3=Hard Road
TTITLE4=Just Can't Say Goodbye
TTITLE5=Insanity
TTITLE6=Now You Do
TTITLE7=Still
TTITLE8=Love Without Fear
TTITLE9=Beautiful In Me
TTITLE10=Love Of A Lifetime
EXTD=
EXTT0=
EXTT1=
EXTT2=
EXTT3=
EXTT4=
EXTT5=
EXTT6=
EXTT7=
EXTT8=
EXTT9=
EXTT10=
PLAYORDER=
